<?xml version="1.0" standalone="no"?>
<!DOCTYPE svg PUBLIC "-//W3C//DTD SVG 20010904//EN"
 "http://www.w3.org/TR/2001/REC-SVG-20010904/DTD/svg10.dtd">
<svg version="1.0" xmlns="http://www.w3.org/2000/svg"
 width="225.000000pt" height="225.000000pt" viewBox="0 0 225.000000 225.000000"
 preserveAspectRatio="xMidYMid meet">

<g transform="translate(0.000000,225.000000) scale(0.100000,-0.100000)"
fill="#000000" stroke="none">
<path d="M597 2233 c4 -11 3 -14 -5 -9 -8 5 -10 2 -5 -9 5 -14 8 -14 15 -3 6
9 7 6 3 -9 -3 -12 -1 -24 4 -28 7 -4 8 1 4 11 -4 10 -2 15 4 11 11 -7 78 31
69 40 -11 11 -68 14 -61 3 4 -6 12 -7 18 -3 7 4 5 -1 -3 -11 -14 -17 -15 -17
-24 3 -11 25 -28 29 -19 4z"/>
<path d="M709 2233 c-12 -15 -12 -16 1 -8 9 5 12 5 7 -1 -5 -5 -12 -9 -15 -9
-18 -1 -52 -27 -47 -36 4 -5 1 -9 -6 -9 -6 0 -27 -9 -46 -21 -29 -18 -32 -23
-21 -38 12 -14 11 -15 -4 -2 -15 11 -21 11 -35 0 -10 -8 -24 -18 -31 -24 -26
-19 -92 -88 -92 -96 0 -4 5 -11 12 -15 8 -5 9 -2 5 10 -4 10 -3 15 3 11 5 -3
14 4 20 15 6 11 14 19 18 18 16 -3 113 50 100 56 -7 3 -3 3 10 0 12 -3 46 2
75 12 61 20 65 23 50 32 -9 5 -6 12 8 21 12 7 18 8 15 2 -4 -5 -2 -12 3 -16
13 -7 65 44 85 84 l17 31 -60 0 c-43 0 -62 -4 -72 -17z m-80 -119 c-6 -7 -15
-11 -21 -8 -5 3 -4 12 3 20 6 7 15 11 21 8 5 -3 4 -12 -3 -20z"/>
<path d="M836 2212 c-49 -78 -103 -113 -229 -146 -60 -16 -66 -20 -55 -35 12
-14 11 -15 -5 -2 -16 12 -21 12 -44 -6 -54 -39 -86 -90 -91 -142 -5 -61 9 -99
50 -136 31 -28 118 -50 104 -27 -4 7 -2 10 6 7 7 -3 31 4 53 15 46 23 103 26
131 6 18 -14 19 -27 18 -233 -2 -194 -1 -207 8 -118 5 55 18 137 28 183 29
120 26 141 -25 240 -25 47 -45 96 -45 108 0 31 18 69 57 125 18 25 31 49 28
52 -3 4 -2 5 2 2 8 -6 39 44 64 103 l18 42 -24 0 c-18 0 -32 -11 -49 -38z
m-191 -256 c30 -31 16 -92 -32 -140 -57 -57 -116 -61 -149 -10 -28 42 -15 125
23 147 7 5 10 13 7 19 -4 6 -3 8 3 5 5 -3 23 -2 39 2 40 12 85 2 109 -23z"/>
<path d="M533 1969 c-96 -28 -99 -189 -3 -189 87 0 164 163 87 185 -43 12 -52
13 -84 4z"/>
<path d="M893 2188 c-17 -35 -53 -97 -81 -138 -29 -41 -55 -88 -58 -106 -6
-32 -3 -40 60 -158 30 -57 33 -105 11 -186 -8 -30 -22 -120 -30 -200 -17 -156
-35 -235 -68 -290 -30 -51 -164 -219 -209 -262 -49 -47 -69 -52 -182 -44 -238
17 -303 19 -322 8 -15 -9 7 -11 96 -12 194 0 291 -26 319 -84 11 -23 11 -44 3
-100 l-10 -71 4 75 c6 95 -6 118 -71 144 -59 22 -355 37 -355 18 0 -6 19 -13
43 -15 l42 -4 -45 -3 c-26 -2 4 -7 70 -10 l115 -6 -112 -2 c-104 -2 -113 -3
-113 -21 0 -12 8 -21 23 -24 22 -4 22 -4 0 -6 -21 -1 -22 -3 -23 -211 l-1
-210 43 -2 43 -1 -45 -6 c-37 -6 -40 -8 -20 -13 24 -5 24 -5 3 -7 -41 -2 -24
-21 20 -23 l42 -1 -45 -7 c-38 -6 -40 -7 -15 -10 l30 -2 -30 -8 -30 -8 30 -2
30 -2 -30 -8 c-30 -7 -30 -7 -5 -13 14 -3 43 -9 65 -12 65 -11 171 -60 224
-104 49 -41 49 -41 134 -41 l86 0 4 43 4 42 1 -42 c2 -37 5 -43 23 -43 19 0
21 4 14 38 -4 20 -24 82 -45 137 -52 138 -55 150 -19 75 36 -77 79 -200 79
-229 0 -12 6 -21 15 -21 25 0 18 25 -46 179 -93 221 -113 314 -89 403 12 41
67 112 90 115 116 11 365 60 402 77 112 53 188 212 202 421 l6 80 -18 -90
c-21 -104 -59 -223 -78 -246 -8 -8 -14 -19 -14 -24 0 -4 -11 -23 -25 -40 -13
-18 -22 -35 -20 -39 3 -3 2 -4 -1 -2 -3 3 -19 -8 -36 -22 -54 -49 -118 -64
-290 -71 -145 -6 -158 -8 -181 -29 -53 -50 -75 -219 -41 -331 8 -29 13 -55 10
-58 -14 -14 -31 94 -31 197 0 102 3 120 23 156 37 63 49 68 222 75 184 8 247
26 304 89 42 46 97 152 120 230 13 42 52 255 57 307 0 5 5 -1 10 -12 7 -16 8
-13 4 14 -6 38 23 112 58 149 80 86 337 133 443 82 52 -26 71 -54 86 -126 13
-64 -6 -175 -48 -278 -32 -80 -29 -85 7 -11 16 33 27 49 23 35 -4 -14 -31 -74
-61 -135 -29 -60 -51 -99 -47 -85 4 14 18 47 31 73 37 75 21 66 -30 -15 -70
-115 -80 -138 -87 -213 l-7 -70 -2 60 c-1 51 5 72 33 130 19 39 44 85 56 103
12 17 18 32 13 32 -8 0 -102 -127 -140 -190 -14 -22 -24 -62 -29 -110 -4 -41
-13 -89 -20 -107 -15 -35 -55 -70 -91 -79 -12 -4 -20 -11 -16 -17 3 -6 1 -7
-6 -3 -16 10 -74 -35 -100 -77 -11 -19 -38 -85 -60 -148 -22 -63 -43 -123 -47
-134 -5 -14 -4 -17 4 -10 6 6 27 51 46 102 19 51 42 106 51 122 8 17 16 34 17
38 12 44 204 113 313 113 62 0 64 -1 98 -41 19 -22 37 -49 40 -60 7 -28 0 -23
-18 11 -29 57 -64 80 -122 80 -62 0 -192 -33 -246 -63 -46 -26 -67 -61 -123
-201 -23 -59 -70 -149 -102 -200 -70 -107 -82 -136 -55 -136 14 0 37 36 90
142 40 79 77 161 84 183 17 59 43 107 75 139 32 31 83 60 91 52 3 -3 -7 -10
-23 -16 -59 -23 -96 -76 -149 -215 -13 -36 -49 -113 -80 -169 -30 -57 -55
-106 -55 -110 0 -3 25 -6 55 -6 48 0 57 3 66 23 l10 22 -5 -23 c-3 -18 0 -22
19 -22 14 0 25 7 28 17 4 17 5 17 6 1 2 -27 39 -23 44 5 l4 22 2 -22 c1 -17 7
-23 25 -23 13 0 27 6 29 13 4 10 6 10 6 0 1 -18 197 -18 204 0 4 9 6 9 6 0 1
-7 12 -13 25 -13 22 0 25 5 29 47 l3 48 2 -47 2 -47 70 0 70 0 0 77 c0 42 -7
102 -15 132 -16 62 -12 81 5 23 7 -21 14 -82 17 -136 5 -86 7 -97 24 -97 15 0
19 10 22 62 l3 63 2 -62 c2 -56 4 -63 22 -63 15 0 20 7 20 28 0 52 -29 150
-70 236 -78 167 -92 208 -76 225 8 9 17 35 21 58 13 83 70 123 173 123 76 0
158 -39 187 -90 18 -31 20 -50 17 -179 -3 -175 5 -194 91 -215 40 -9 35 16 -7
39 -19 10 -39 29 -45 42 -15 33 -12 131 5 173 8 19 12 24 9 10 -4 -14 -9 -53
-12 -88 -7 -73 6 -106 49 -128 25 -13 28 -13 28 1 0 9 -9 28 -20 43 -11 15
-22 43 -25 62 -4 29 -3 27 10 -12 26 -78 35 -68 35 39 -1 90 -2 96 -15 73 -8
-14 -14 -20 -15 -14 0 5 7 19 15 30 11 15 14 57 15 200 l0 181 -40 18 c-22 10
-45 24 -51 32 -17 20 -2 16 30 -8 17 -13 34 -18 42 -14 8 5 10 4 5 -3 -4 -7
-2 -12 3 -12 6 0 11 11 11 25 0 14 -6 25 -13 25 -18 0 -64 49 -77 84 -5 15
-14 94 -19 175 -7 113 -14 157 -30 195 -12 27 -19 51 -17 54 5 5 14 -15 42
-93 8 -22 17 -92 20 -155 7 -151 11 -177 30 -177 9 0 13 6 9 14 -3 8 -5 21 -5
29 0 9 -3 13 -7 11 -5 -3 -9 38 -11 92 -4 107 -12 155 -42 233 -18 48 -69 129
-54 86 11 -33 -5 -18 -26 22 -11 22 -25 40 -30 40 -5 0 9 -29 31 -65 65 -102
79 -163 79 -330 0 -79 5 -156 10 -171 6 -15 8 -29 6 -32 -15 -15 -26 67 -28
216 l-3 167 -38 79 c-20 43 -40 77 -43 74 -3 -3 9 -33 26 -66 16 -32 30 -68
30 -78 0 -11 -11 7 -24 39 -14 32 -37 77 -52 100 -22 35 -23 39 -6 23 32 -28
27 -10 -12 45 -53 73 -84 141 -94 205 -10 66 -8 101 15 227 8 48 13 110 11
137 -6 58 -57 163 -82 168 -18 4 -14 -17 14 -58 20 -30 33 -63 22 -56 -5 3
-21 30 -36 60 -23 44 -33 56 -52 56 -33 0 -30 -19 12 -74 19 -25 42 -62 50
-81 15 -36 17 -110 4 -160 -5 -18 -6 1 -3 45 6 86 -5 120 -61 194 -20 26 -36
54 -36 62 0 10 -13 14 -44 14 -38 0 -45 -3 -49 -22 l-4 -23 -2 23 c-2 41 -30
25 -34 -20 l-4 -43 -1 43 -2 43 -259 -1 -260 -1 -4 -42 -4 -42 -1 43 -2 42
-44 0 c-38 0 -45 -3 -49 -22 l-4 -23 -2 23 c-2 32 -27 27 -34 -6 -3 -16 -18
-55 -33 -88 -15 -32 -36 -77 -45 -99 -10 -22 -18 -33 -18 -25 -1 8 17 53 39
98 49 100 60 142 37 142 -9 0 -27 -26 -44 -62z m134 5 c-3 -10 -5 -2 -5 17 0
19 2 27 5 18 2 -10 2 -26 0 -35z m690 25 c-3 -8 -6 -5 -6 6 -1 11 2 17 5 13 3
-3 4 -12 1 -19z m-130 -65 c-2 -16 -4 -3 -4 27 0 30 2 43 4 28 2 -16 2 -40 0
-55z m-530 25 c-3 -7 -5 -2 -5 12 0 14 2 19 5 13 2 -7 2 -19 0 -25z m-70 -10
c-3 -7 -5 -2 -5 12 0 14 2 19 5 13 2 -7 2 -19 0 -25z m697 6 c3 -8 2 -12 -4
-9 -6 3 -10 10 -10 16 0 14 7 11 14 -7z m-25 -69 c0 -5 -6 1 -14 15 -8 14 -14
30 -14 35 0 6 6 -1 14 -15 8 -14 14 -29 14 -35z m-685 6 c-4 -17 -9 -30 -11
-27 -3 2 -2 19 2 36 9 41 17 33 9 -9z m43 -53 c-2 -18 -4 -4 -4 32 0 36 2 50
4 33 2 -18 2 -48 0 -65z m243 57 c13 -14 21 -25 18 -25 -2 0 -15 11 -28 25
-13 14 -21 25 -18 25 2 0 15 -11 28 -25z m560 -49 c0 -5 -1 -7 -3 -5 -2 2 -15
22 -31 44 l-27 40 30 -35 c17 -19 31 -39 31 -44z m-753 42 c-3 -8 -6 -5 -6 6
-1 11 2 17 5 13 3 -3 4 -12 1 -19z m664 -5 c13 -16 12 -17 -3 -4 -10 7 -18 15
-18 17 0 8 8 3 21 -13z m179 -62 c0 -71 -6 -62 -13 18 -3 41 -2 59 4 50 5 -8
9 -38 9 -68z m-503 63 c-3 -3 -12 -4 -19 -1 -8 3 -5 6 6 6 11 1 17 -2 13 -5z
m-323 -40 c3 -8 2 -12 -4 -9 -6 3 -10 10 -10 16 0 14 7 11 14 -7z m696 -44 c0
-13 -5 -5 -35 52 -4 7 3 2 14 -12 11 -14 21 -32 21 -40z m-825 -9 c-5 -41 -2
-78 10 -126 23 -89 16 -147 -28 -239 -20 -42 -38 -76 -41 -76 -3 0 11 34 31
76 44 92 51 150 28 239 -12 48 -15 85 -10 126 4 33 9 59 12 59 3 0 2 -26 -2
-59z m642 37 c-3 -8 -6 -5 -6 6 -1 11 2 17 5 13 3 -3 4 -12 1 -19z m113 -33
c0 -5 -5 -3 -10 5 -5 8 -10 20 -10 25 0 6 5 3 10 -5 5 -8 10 -19 10 -25z m117
-72 c-2 -21 -4 -4 -4 37 0 41 2 58 4 38 2 -21 2 -55 0 -75z m-220 35 c-3 -7
-5 -2 -5 12 0 14 2 19 5 13 2 -7 2 -19 0 -25z m-427 -15 c0 -7 -39 17 -46 28
-3 6 5 3 20 -6 14 -10 26 -19 26 -22z m-323 -65 c-2 -18 -4 -4 -4 32 0 36 2
50 4 33 2 -18 2 -48 0 -65z m194 75 c13 -16 12 -17 -3 -4 -10 7 -18 15 -18 17
0 8 8 3 21 -13z m736 -35 c-2 -13 -4 -5 -4 17 -1 22 1 32 4 23 2 -10 2 -28 0
-40z m108 -8 c-4 -23 -9 -39 -11 -37 -3 2 -2 23 2 46 4 23 9 40 11 37 3 -3 2
-23 -2 -46z m-665 4 c0 -2 -9 0 -20 6 -11 6 -20 13 -20 16 0 2 9 0 20 -6 11
-6 20 -13 20 -16z m131 -21 c13 -16 12 -17 -3 -4 -10 7 -18 15 -18 17 0 8 8 3
21 -13z m-221 -28 c13 -14 21 -25 18 -25 -2 0 -15 11 -28 25 -13 14 -21 25
-18 25 2 0 15 -11 28 -25z m160 -10 c19 -19 32 -35 29 -35 -3 0 -20 16 -39 35
-19 19 -32 35 -29 35 3 0 20 -16 39 -35z m477 13 c-3 -8 -6 -5 -6 6 -1 11 2
17 5 13 3 -3 4 -12 1 -19z m40 -20 c-3 -7 -5 -2 -5 12 0 14 2 19 5 13 2 -7 2
-19 0 -25z m30 0 c-3 -7 -5 -2 -5 12 0 14 2 19 5 13 2 -7 2 -19 0 -25z m29
-105 c-1 -130 5 -148 83 -238 l35 -40 -38 35 c-51 47 -85 107 -92 163 -6 39 3
197 10 197 2 0 2 -53 2 -117z m-115 84 c-10 -9 -11 -8 -5 6 3 10 9 15 12 12 3
-3 0 -11 -7 -18z m-872 -113 c1 -31 -11 -91 -30 -150 -16 -55 -36 -144 -43
-199 -8 -55 -14 -86 -14 -70 -2 62 19 180 49 274 31 96 35 160 15 251 -3 14 1
7 8 -15 8 -22 15 -63 15 -91z m576 108 c-3 -3 -11 0 -18 7 -9 10 -8 11 6 5 10
-3 15 -9 12 -12z m-287 -17 c-3 -3 -9 2 -12 12 -6 14 -5 15 5 6 7 -7 10 -15 7
-18z m659 -12 c-3 -10 -5 -4 -5 12 0 17 2 24 5 18 2 -7 2 -21 0 -30z m-437 -3
c8 -5 11 -10 5 -10 -5 0 -17 5 -25 10 -8 5 -10 10 -5 10 6 0 17 -5 25 -10z
m183 3 c-7 -2 -19 -2 -25 0 -7 3 -2 5 12 5 14 0 19 -2 13 -5z m208 -16 c-10
-9 -11 -8 -5 6 3 10 9 15 12 12 3 -3 0 -11 -7 -18z m-344 -3 c-3 -3 -12 -4
-19 -1 -8 3 -5 6 6 6 11 1 17 -2 13 -5z m380 -36 c-3 -7 -5 -2 -5 12 0 14 2
19 5 13 2 -7 2 -19 0 -25z m-577 -1 c13 -5 13 -6 -1 -6 -8 -1 -24 6 -35 15
-19 15 -19 15 1 6 11 -5 27 -12 35 -15z m277 17 c-3 -3 -12 -4 -19 -1 -8 3 -5
6 6 6 11 1 17 -2 13 -5z m160 0 c-3 -3 -12 -4 -19 -1 -8 3 -5 6 6 6 11 1 17
-2 13 -5z m83 -14 c-6 -11 -13 -20 -16 -20 -2 0 0 9 6 20 6 11 13 20 16 20 2
0 0 -9 -6 -20z m-137 3 c-13 -2 -35 -2 -50 0 -16 2 -5 4 22 4 28 0 40 -2 28
-4z m-195 -20 c-32 -2 -84 -2 -115 0 -32 2 -6 3 57 3 63 0 89 -1 58 -3z m125
-10 c-7 -2 -21 -2 -30 0 -10 3 -4 5 12 5 17 0 24 -2 18 -5z m125 -10 c-21 -2
-55 -2 -75 0 -21 2 -4 4 37 4 41 0 58 -2 38 -4z m-574 -29 c13 -5 16 -21 14
-78 l-2 -71 -5 69 c-5 57 -10 70 -26 77 -11 4 -15 8 -8 8 6 1 18 -2 27 -5z
m566 -3 c25 -4 -27 -6 -115 -3 -88 2 -164 5 -170 7 -20 7 241 3 285 -4z m-611
-4 c-2 -2 -17 -11 -34 -21 l-30 -17 24 20 c13 12 28 21 34 21 6 0 8 -1 6 -3z
m310 -1 c-2 -2 -22 -6 -44 -9 -28 -5 -34 -4 -20 3 19 8 73 14 64 6z m-135 -50
c-30 -20 -56 -48 -64 -66 -7 -17 -15 -29 -17 -26 -17 17 86 124 122 126 5 0
-13 -15 -41 -34z m339 27 c-13 -2 -33 -2 -45 0 -13 2 -3 4 22 4 25 0 35 -2 23
-4z m-74 -7 c-2 -2 -29 -6 -59 -9 -34 -3 -47 -2 -35 3 19 8 103 14 94 6z m144
-3 c-7 -2 -21 -2 -30 0 -10 3 -4 5 12 5 17 0 24 -2 18 -5z m-693 -50 c-24 -27
-45 -50 -47 -52 -2 -2 -3 -1 -3 3 0 8 80 96 88 96 2 0 -15 -21 -38 -47z m764
33 c19 -8 37 -19 41 -26 4 -6 -10 -3 -31 8 -22 11 -46 22 -54 25 -10 3 -11 6
-2 6 7 1 28 -5 46 -13z m-376 -15 c-123 -48 -161 -106 -202 -301 -13 -63 -24
-108 -25 -99 -1 9 8 63 20 119 19 100 41 156 81 212 19 27 129 88 157 88 9 -1
-5 -9 -31 -19z m466 -100 c8 -43 -3 -34 -14 11 -4 18 -11 42 -14 53 -5 12 -2
10 7 -5 8 -14 17 -40 21 -59z m-781 42 c-7 -2 -19 -2 -25 0 -7 3 -2 5 12 5 14
0 19 -2 13 -5z m-76 -31 c-9 -10 -23 -33 -31 -52 -8 -19 -15 -29 -16 -22 0 23
43 92 58 92 3 0 -2 -8 -11 -18z m-86 -19 c-12 -20 -14 -14 -5 12 4 9 9 14 11
11 3 -2 0 -13 -6 -23z m246 -10 c-3 -10 -5 -4 -5 12 0 17 2 24 5 18 2 -7 2
-21 0 -30z m-50 5 c-3 -8 -6 -5 -6 6 -1 11 2 17 5 13 3 -3 4 -12 1 -19z m84
-9 c-5 -13 -10 -19 -10 -12 -1 15 10 45 15 40 3 -2 0 -15 -5 -28z m-260 -6
c-12 -20 -14 -14 -5 12 4 9 9 14 11 11 3 -2 0 -13 -6 -23z m1082 -42 c49 -47
97 -146 96 -197 l-2 -39 -6 45 c-13 91 -89 207 -148 224 -15 5 -28 0 -43 -16
-22 -22 -22 -22 -11 -1 22 43 58 38 114 -16z m-178 -87 c-10 -41 -19 -73 -22
-71 -2 3 3 35 12 71 8 37 16 79 16 94 2 24 2 24 6 5 2 -13 -3 -57 -12 -99z
m-918 84 c-3 -8 -6 -5 -6 6 -1 11 2 17 5 13 3 -3 4 -12 1 -19z m230 -15 c-3
-10 -5 -4 -5 12 0 17 2 24 5 18 2 -7 2 -21 0 -30z m22 -42 c-7 -39 -14 -69
-17 -67 -2 3 1 37 8 76 7 39 14 69 16 67 3 -2 -1 -36 -7 -76z m-288 -11 c-5
-41 -9 -52 -10 -30 -1 39 11 120 16 105 1 -6 -1 -39 -6 -75z m66 38 c-3 -8 -6
-5 -6 6 -1 11 2 17 5 13 3 -3 4 -12 1 -19z m-40 -35 c-3 -10 -5 -2 -5 17 0 19
2 27 5 18 2 -10 2 -26 0 -35z m200 0 c-3 -10 -5 -2 -5 17 0 19 2 27 5 18 2
-10 2 -26 0 -35z m897 26 c25 -20 57 -68 56 -86 -1 -4 -10 9 -21 29 -39 75
-93 85 -130 25 -10 -18 -19 -26 -19 -19 0 18 55 72 73 72 8 0 26 -9 41 -21z
m-133 -20 c-5 -13 -10 -19 -10 -12 -1 15 10 45 15 40 3 -2 0 -15 -5 -28z
m-734 -11 c-3 -8 -6 -5 -6 6 -1 11 2 17 5 13 3 -3 4 -12 1 -19z m-200 -65 c-2
-16 -4 -3 -4 27 0 30 2 43 4 28 2 -16 2 -40 0 -55z m103 30 c-11 -17 -11 -17
-6 0 3 10 6 24 7 30 0 9 2 9 5 0 3 -7 0 -20 -6 -30z m57 -5 c-3 -8 -6 -5 -6 6
-1 11 2 17 5 13 3 -3 4 -12 1 -19z m752 -32 c-6 -26 -13 -45 -16 -43 -2 3 1
26 8 51 6 26 13 45 16 43 2 -3 -1 -26 -8 -51z m-722 22 c-3 -8 -6 -5 -6 6 -1
11 2 17 5 13 3 -3 4 -12 1 -19z m860 16 c-3 -3 -12 -4 -19 -1 -8 3 -5 6 6 6
11 1 17 -2 13 -5z m-37 -8 c0 -2 -8 -10 -17 -17 -16 -13 -17 -12 -4 4 13 16
21 21 21 13z m70 -16 c6 -11 8 -20 6 -20 -3 0 -10 9 -16 20 -6 11 -8 20 -6 20
3 0 10 -9 16 -20z m-1130 -218 c-11 -16 -11 -16 -6 1 3 10 7 67 8 125 l2 107
3 -108 c2 -67 0 -114 -7 -125z m-29 93 l-11 -40 5 40 c3 22 6 58 7 80 l1 40 4
-40 c2 -22 -1 -58 -6 -80z m216 72 c-8 -19 -19 -37 -24 -40 -5 -3 0 14 11 38
24 51 34 53 13 2z m40 21 c-3 -8 -6 -5 -6 6 -1 11 2 17 5 13 3 -3 4 -12 1 -19z
m30 -15 c-3 -10 -5 -4 -5 12 0 17 2 24 5 18 2 -7 2 -21 0 -30z m890 -75 c-2
-18 -4 -4 -4 32 0 36 2 50 4 33 2 -18 2 -48 0 -65z m-1212 -13 c-9 -36 -34
-88 -58 -123 -23 -33 -61 -87 -84 -120 -31 -44 -43 -71 -43 -96 0 -51 27 -66
125 -68 l80 -2 -70 -3 c-113 -6 -145 11 -145 76 0 28 10 51 40 92 117 158 158
239 161 318 1 20 2 21 6 7 3 -11 -2 -47 -12 -81z m112 63 c-3 -7 -5 -2 -5 12
0 14 2 19 5 13 2 -7 2 -19 0 -25z m1200 -90 c-2 -24 -4 -5 -4 42 0 47 2 66 4
43 2 -24 2 -62 0 -85z m-60 20 c-2 -18 -4 -4 -4 32 0 36 2 50 4 33 2 -18 2
-48 0 -65z m-940 50 c-3 -8 -6 -5 -6 6 -1 11 2 17 5 13 3 -3 4 -12 1 -19z
m712 -37 c-7 -23 -14 -39 -16 -37 -3 2 1 23 8 45 7 23 14 39 16 37 3 -2 -1
-23 -8 -45z m-895 23 c3 -8 2 -12 -4 -9 -6 3 -10 10 -10 16 0 14 7 11 14 -7z
m933 -16 c-3 -8 -6 -5 -6 6 -1 11 2 17 5 13 3 -3 4 -12 1 -19z m-767 -25 c-11
-17 -11 -17 -6 0 3 10 6 24 7 30 0 9 2 9 5 0 3 -7 0 -20 -6 -30z m25 -44 c-10
-28 -37 -93 -61 -145 -25 -52 -42 -100 -38 -106 4 -6 3 -8 -3 -5 -5 3 -22 -8
-38 -25 -34 -36 -99 -68 -135 -67 -18 1 -15 3 13 10 51 12 87 32 118 66 31 33
123 227 141 296 7 27 14 44 16 38 2 -6 -4 -34 -13 -62z m950 -47 c-23 -78 -58
-136 -99 -161 -49 -31 -57 -26 -9 6 23 14 50 42 61 62 25 45 52 134 54 180 l1
36 4 -33 c2 -18 -3 -58 -12 -90z m-1098 102 c-3 -3 -12 -4 -19 -1 -8 3 -5 6 6
6 11 1 17 -2 13 -5z m804 -21 c-12 -20 -14 -14 -5 12 4 9 9 14 11 11 3 -2 0
-13 -6 -23z m76 -40 c-3 -10 -5 -2 -5 17 0 19 2 27 5 18 2 -10 2 -26 0 -35z
m-1043 -25 c-9 -18 -36 -59 -60 -90 -23 -32 -48 -74 -54 -94 -7 -19 -14 -33
-17 -31 -9 9 28 80 71 138 25 33 51 75 58 95 7 19 14 31 16 25 2 -5 -4 -25
-14 -43z m205 25 c-14 -16 -37 -43 -52 -61 -15 -19 -27 -30 -27 -25 0 10 89
113 98 113 3 0 -6 -12 -19 -27z m41 -33 c-18 -27 -34 -50 -37 -50 -3 0 5 15
17 33 11 17 26 42 32 55 6 12 13 20 16 17 2 -2 -10 -27 -28 -55z m701 19 c-5
-13 -10 -19 -10 -12 -1 15 10 45 15 40 3 -2 0 -15 -5 -28z m46 9 c-3 -8 -6 -5
-6 6 -1 11 2 17 5 13 3 -3 4 -12 1 -19z m234 -15 c-12 -20 -14 -14 -5 12 4 9
9 14 11 11 3 -2 0 -13 -6 -23z m-64 -8 c-15 -14 -33 -25 -39 -25 -6 0 4 11 23
24 44 32 51 32 16 1z m130 -37 c-2 -13 -4 -5 -4 17 -1 22 1 32 4 23 2 -10 2
-28 0 -40z m-304 -12 c3 -30 1 -43 -4 -35 -8 13 -13 97 -5 88 2 -2 6 -26 9
-53z m-952 11 c-10 -9 -11 -8 -5 6 3 10 9 15 12 12 3 -3 0 -11 -7 -18z m890
-13 c-5 -16 -10 -21 -10 -12 -1 18 10 51 15 45 2 -1 -1 -16 -5 -33z m239 -34
c-19 -16 -39 -30 -44 -30 -5 0 8 13 30 30 50 38 59 38 14 0z m-1160 1 c-5 -11
-15 -23 -21 -27 -6 -3 -3 5 6 20 20 30 30 35 15 7z m176 -38 c-14 -26 -25 -45
-26 -41 0 12 43 98 48 94 2 -2 -8 -26 -22 -53z m1099 -91 c-7 -50 -16 -55
-126 -72 -41 -6 -87 -13 -104 -15 -16 -3 -7 1 20 9 28 8 75 17 106 21 86 10
93 18 99 122 4 74 5 79 8 33 2 -30 1 -74 -3 -98z m-368 86 c-3 -7 -5 -2 -5 12
0 14 2 19 5 13 2 -7 2 -19 0 -25z m-800 0 c-3 -8 -6 -5 -6 6 -1 11 2 17 5 13
3 -3 4 -12 1 -19z m729 -45 c-1 -32 3 -67 8 -77 7 -14 6 -17 -2 -12 -16 10
-25 70 -18 111 4 19 8 35 10 35 1 0 2 -26 2 -57z m247 50 c-13 -2 -33 -2 -45
0 -13 2 -3 4 22 4 25 0 35 -2 23 -4z m-992 -50 c-12 -20 -14 -14 -5 12 4 9 9
14 11 11 3 -2 0 -13 -6 -23z m872 -28 c12 -2 40 -6 62 -8 34 -3 32 -4 -13 -5
-44 -2 -57 2 -77 23 -14 13 -25 30 -25 37 1 7 7 1 16 -14 8 -15 25 -30 37 -33z
m-832 -13 c-20 -29 -77 -63 -103 -61 -9 0 -9 2 2 6 51 19 82 39 97 64 9 16 19
27 21 24 2 -2 -5 -17 -17 -33z m966 12 c-3 -3 -12 -4 -19 -1 -8 3 -5 6 6 6 11
1 17 -2 13 -5z m-1122 -22 c-3 -3 -11 0 -18 7 -9 10 -8 11 6 5 10 -3 15 -9 12
-12z m80 8 c-3 -5 -12 -10 -18 -10 -7 0 -6 4 3 10 19 12 23 12 15 0z m-38 -16
c-3 -3 -12 -4 -19 -1 -8 3 -5 6 6 6 11 1 17 -2 13 -5z m-133 -20 c3 -8 2 -12
-4 -9 -6 3 -10 10 -10 16 0 14 7 11 14 -7z m82 -32 c-27 -2 -52 0 -57 5 -4 4
18 6 49 3 l57 -5 -49 -3z m989 -23 l60 -6 -53 -1 c-47 -2 -112 18 -112 34 0 2
10 -1 23 -8 12 -7 49 -15 82 -19z m-61 -96 c28 3 80 15 115 26 35 12 90 21
122 21 163 0 300 -113 270 -224 l-10 -41 4 43 c6 48 -14 105 -47 133 -11 11
-46 31 -77 46 -80 39 -161 42 -270 9 -86 -27 -140 -31 -176 -16 -11 5 -16 9
-12 9 4 1 -6 14 -23 31 -16 16 -30 35 -30 41 0 7 19 -10 42 -36 42 -47 42 -47
92 -42z m-1376 48 c46 -23 73 -65 71 -108 -2 -27 -2 -27 -6 -3 -13 80 -57 115
-167 130 l-61 9 61 -3 c36 -2 77 -12 102 -25z m-181 -18 c-20 -2 -52 -2 -70 0
-17 2 0 4 38 4 39 0 53 -2 32 -4z m164 -14 l24 -20 -30 17 c-39 24 -40 24 -28
24 6 0 21 -9 34 -21z m-114 -15 c-3 -3 -12 -4 -19 -1 -8 3 -5 6 6 6 11 1 17
-2 13 -5z m71 -31 c15 -16 19 -21 7 -12 -11 9 -29 21 -40 27 -11 6 -14 12 -8
12 7 0 25 -12 41 -27z m43 10 c13 -16 12 -17 -3 -4 -10 7 -18 15 -18 17 0 8 8
3 21 -13z m58 -48 c0 -11 -6 -2 -14 20 -18 50 -18 57 0 25 8 -14 14 -34 14
-45z m-192 39 c-3 -3 -12 -4 -19 -1 -8 3 -5 6 6 6 11 1 17 -2 13 -5z m-64 -21
c-7 -2 -19 -2 -25 0 -7 3 -2 5 12 5 14 0 19 -2 13 -5z m165 -58 c-3 -3 -9 2
-12 12 -6 14 -5 15 5 6 7 -7 10 -15 7 -18z m69 -7 c-3 -7 -5 -2 -5 12 0 14 2
19 5 13 2 -7 2 -19 0 -25z m30 -90 c-2 -24 -4 -7 -4 37 0 44 2 63 4 43 2 -21
2 -57 0 -80z m-216 55 c13 -16 12 -17 -3 -4 -10 7 -18 15 -18 17 0 8 8 3 21
-13z m166 -75 c-2 -18 -4 -4 -4 32 0 36 2 50 4 33 2 -18 2 -48 0 -65z m100 35
c-3 -10 -5 -4 -5 12 0 17 2 24 5 18 2 -7 2 -21 0 -30z m1186 23 c18 -7 45 -24
59 -37 28 -27 88 -117 88 -133 0 -6 -12 9 -26 34 -31 55 -80 108 -114 123 -14
6 -59 14 -100 17 l-75 7 68 1 c38 1 82 -4 100 -12z m-176 -2 c-3 -3 -12 -4
-19 -1 -8 3 -5 6 6 6 11 1 17 -2 13 -5z m-1080 -111 c-2 -21 -4 -4 -4 37 0 41
2 58 4 38 2 -21 2 -55 0 -75z m93 -118 c46 -142 45 -255 -3 -255 -6 0 -2 6 9
14 31 23 24 118 -20 254 -24 77 -36 130 -35 165 l2 52 7 -65 c4 -36 22 -110
40 -165z m-153 163 c-2 -13 -4 -5 -4 17 -1 22 1 32 4 23 2 -10 2 -28 0 -40z
m1231 25 c-10 -2 -28 -2 -40 0 -13 2 -5 4 17 4 22 1 32 -1 23 -4z m-75 -10
c-7 -2 -19 -2 -25 0 -7 3 -2 5 12 5 14 0 19 -2 13 -5z m177 -20 c13 -15 13
-15 0 -6 -8 6 -31 16 -50 22 l-35 11 35 -5 c19 -3 42 -13 50 -22z m-1172 -108
c-1 -24 -26 73 -26 100 0 19 5 7 13 -30 8 -33 14 -64 13 -70z m911 97 c-24
-16 -52 -39 -62 -53 -12 -16 -15 -17 -8 -4 15 33 79 84 105 85 6 0 -10 -13
-35 -28z m154 1 c-13 -2 -35 -2 -50 0 -16 2 -5 4 22 4 28 0 40 -2 28 -4z m-86
-9 c-3 -3 -12 -4 -19 -1 -8 3 -5 6 6 6 11 1 17 -2 13 -5z m162 -8 c15 -8 34
-23 42 -33 13 -17 13 -17 -6 -2 -11 9 -33 24 -50 32 -16 9 -26 16 -22 17 4 0
20 -6 36 -14z m113 -51 c11 -21 10 -20 -37 35 l-30 35 28 -25 c16 -14 33 -34
39 -45z m-1325 8 c-3 -10 -5 -2 -5 17 0 19 2 27 5 18 2 -10 2 -26 0 -35z m993
34 c0 -2 -10 -12 -22 -23 l-23 -19 19 23 c18 21 26 27 26 19z m175 -12 c-22
-8 -134 -11 -123 -3 7 4 40 7 73 7 33 0 56 -2 50 -4z m672 -17 c-3 -8 -6 -5
-6 6 -1 11 2 17 5 13 3 -3 4 -12 1 -19z m-1930 -10 c-3 -8 -6 -5 -6 6 -1 11 2
17 5 13 3 -3 4 -12 1 -19z m1093 -2 c0 -2 -8 -10 -17 -17 -16 -13 -17 -12 -4
4 13 16 21 21 21 13z m292 -75 c15 -25 28 -50 28 -55 0 -6 -12 9 -26 34 -14
25 -37 58 -52 75 -24 26 -24 27 -3 10 13 -11 37 -40 53 -64z m3 53 c9 -15 12
-23 6 -20 -11 7 -35 46 -28 46 3 0 12 -12 22 -26z m-361 -9 c-9 -14 -18 -25
-21 -25 -5 0 5 18 20 38 17 22 18 13 1 -13z m189 18 c-13 -2 -33 -2 -45 0 -13
2 -3 4 22 4 25 0 35 -2 23 -4z m-1146 -35 c-3 -7 -5 -2 -5 12 0 14 2 19 5 13
2 -7 2 -19 0 -25z m42 -18 c0 -9 -4 -8 -9 5 -5 11 -9 27 -9 35 0 9 4 8 9 -5 5
-11 9 -27 9 -35z m864 5 c-8 -25 -17 -45 -20 -45 -4 0 2 25 18 68 16 42 18 22
2 -23z m302 35 c3 -6 -1 -7 -9 -4 -18 7 -21 14 -7 14 6 0 13 -4 16 -10z
m-1335 -3 c0 -2 -10 -12 -22 -23 l-23 -19 19 23 c18 21 26 27 26 19z m1505
-28 c9 -17 15 -33 13 -35 -3 -2 -12 12 -21 31 -21 43 -13 47 8 4z m-1408 -1
c-3 -8 -6 -5 -6 6 -1 11 2 17 5 13 3 -3 4 -12 1 -19z m1452 -33 c0 -5 -6 1
-14 15 -8 14 -14 30 -14 35 0 6 6 -1 14 -15 8 -14 14 -29 14 -35z m-1300 -17
c11 -34 19 -63 17 -65 -2 -3 -12 20 -21 49 -10 29 -20 59 -23 66 -2 6 -2 12 1
12 3 0 15 -28 26 -62z m1236 21 c9 -17 15 -33 13 -35 -3 -2 -12 12 -21 31 -21
43 -13 47 8 4z m-1348 -31 c-2 -13 -4 -5 -4 17 -1 22 1 32 4 23 2 -10 2 -28 0
-40z m914 25 c-12 -20 -14 -14 -5 12 4 9 9 14 11 11 3 -2 0 -13 -6 -23z
m-1208 10 c-7 -2 -21 -2 -30 0 -10 3 -4 5 12 5 17 0 24 -2 18 -5z m254 -15
c-3 -8 -6 -5 -6 6 -1 11 2 17 5 13 3 -3 4 -12 1 -19z m1228 12 c3 -6 -1 -7 -9
-4 -18 7 -21 14 -7 14 6 0 13 -4 16 -10z m-1148 -22 c-3 -8 -6 -5 -6 6 -1 11
2 17 5 13 3 -3 4 -12 1 -19z m-290 -4 c-3 -3 -12 -4 -19 -1 -8 3 -5 6 6 6 11
1 17 -2 13 -5z m203 -18 c0 -2 -8 -10 -17 -17 -16 -13 -17 -12 -4 4 13 16 21
21 21 13z m97 -18 c-3 -8 -6 -5 -6 6 -1 11 2 17 5 13 3 -3 4 -12 1 -19z m1409
-72 c2 -17 -4 -4 -16 29 -11 33 -19 62 -19 65 2 12 30 -65 35 -94z m-1729 78
c-3 -3 -12 -4 -19 -1 -8 3 -5 6 6 6 11 1 17 -2 13 -5z m1640 -16 c-3 -8 -6 -5
-6 6 -1 11 2 17 5 13 3 -3 4 -12 1 -19z m-1377 -25 c-11 -17 -11 -17 -6 0 3
10 6 24 7 30 0 9 2 9 5 0 3 -7 0 -20 -6 -30z m861 6 c-5 -13 -10 -19 -10 -12
-1 15 10 45 15 40 3 -2 0 -15 -5 -28z m36 9 c-3 -8 -6 -5 -6 6 -1 11 2 17 5
13 3 -3 4 -12 1 -19z m-1034 5 c-7 -2 -21 -2 -30 0 -10 3 -4 5 12 5 17 0 24
-2 18 -5z m-96 -9 c-3 -3 -12 -4 -19 -1 -8 3 -5 6 6 6 11 1 17 -2 13 -5z
m1550 -16 c-3 -8 -6 -5 -6 6 -1 11 2 17 5 13 3 -3 4 -12 1 -19z m-1500 6 c-3
-3 -12 -4 -19 -1 -8 3 -5 6 6 6 11 1 17 -2 13 -5z m250 -16 c-3 -8 -6 -5 -6 6
-1 11 2 17 5 13 3 -3 4 -12 1 -19z m860 -10 c-3 -7 -5 -2 -5 12 0 14 2 19 5
13 2 -7 2 -19 0 -25z m460 10 c-3 -8 -6 -5 -6 6 -1 11 2 17 5 13 3 -3 4 -12 1
-19z m-1634 5 c-7 -2 -19 -2 -25 0 -7 3 -2 5 12 5 14 0 19 -2 13 -5z m104 1
c-3 -3 -12 -4 -19 -1 -8 3 -5 6 6 6 11 1 17 -2 13 -5z m312 -79 c0 -11 -7 0
-15 25 -7 25 -13 50 -13 55 1 18 27 -59 28 -80z m718 63 c-3 -8 -6 -5 -6 6 -1
11 2 17 5 13 3 -3 4 -12 1 -19z m-1048 -4 c29 -8 51 -17 49 -19 -2 -2 -31 4
-63 14 -33 11 -55 20 -49 20 6 1 34 -6 63 -15z m64 9 c-7 -2 -19 -2 -25 0 -7
3 -2 5 12 5 14 0 19 -2 13 -5z m-99 -23 c36 -12 66 -23 66 -26 0 -4 -8 -3 -17
1 -10 4 -49 15 -88 25 -38 11 -60 19 -49 19 12 1 52 -8 88 -19z m153 14 c-3
-3 -12 -4 -19 -1 -8 3 -5 6 6 6 11 1 17 -2 13 -5z m1010 -26 c-3 -7 -5 -2 -5
12 0 14 2 19 5 13 2 -7 2 -19 0 -25z m60 -10 c-3 -7 -5 -2 -5 12 0 14 2 19 5
13 2 -7 2 -19 0 -25z m-196 -5 c-12 -20 -14 -14 -5 12 4 9 9 14 11 11 3 -2 0
-13 -6 -23z m86 -5 c-3 -7 -5 -2 -5 12 0 14 2 19 5 13 2 -7 2 -19 0 -25z m233
28 c0 -2 -8 -10 -17 -17 -16 -13 -17 -12 -4 4 13 16 21 21 21 13z m177 -78
c-2 -18 -4 -6 -4 27 0 33 2 48 4 33 2 -15 2 -42 0 -60z m70 -26 c-2 -20 -4 -3
-4 38 0 41 2 58 4 38 2 -21 2 -55 0 -76z m-1452 88 c13 -6 15 -9 5 -9 -8 0
-22 4 -30 9 -18 12 -2 12 25 0z m1422 -68 c-2 -15 -4 -2 -4 28 0 30 2 43 4 27
2 -15 2 -39 0 -55z m-1438 32 c14 -12 -19 -1 -35 12 -18 14 -18 14 6 3 14 -6
27 -13 29 -15z m89 19 c-10 -2 -26 -2 -35 0 -10 3 -2 5 17 5 19 0 27 -2 18 -5z
m849 -25 c-3 -8 -6 -5 -6 6 -1 11 2 17 5 13 3 -3 4 -12 1 -19z m-64 -33 c-8
-25 -17 -45 -20 -45 -4 0 2 25 18 68 16 42 18 22 2 -23z m154 13 c-3 -7 -5 -2
-5 12 0 14 2 19 5 13 2 -7 2 -19 0 -25z m-50 -10 c-3 -7 -5 -2 -5 12 0 14 2
19 5 13 2 -7 2 -19 0 -25z m-897 -1 c13 -5 13 -6 -1 -6 -8 -1 -24 6 -35 15
-19 15 -19 15 1 6 11 -5 27 -12 35 -15z m1007 -9 c-3 -8 -6 -5 -6 6 -1 11 2
17 5 13 3 -3 4 -12 1 -19z"/>
<path d="M1902 2194 c39 -71 46 -150 24 -254 -22 -103 -21 -227 2 -287 26 -67
78 -148 86 -134 4 6 13 8 19 4 7 -4 16 -8 21 -8 5 0 11 -6 14 -14 3 -8 0 -11
-7 -7 -6 4 -11 3 -11 -3 0 -5 5 -13 10 -16 6 -3 10 -1 10 6 0 8 5 7 17 -2 15
-13 15 -12 3 11 -7 14 -16 27 -19 30 -4 3 -12 16 -19 30 -6 14 -16 32 -22 40
-6 8 -17 32 -26 54 -8 21 -17 36 -20 33 -6 -6 24 -72 49 -110 10 -15 17 -33
14 -40 -2 -6 -11 3 -21 21 -9 17 -19 32 -22 32 -2 0 0 -9 6 -21 7 -11 9 -23 7
-26 -3 -2 -24 34 -47 81 -53 106 -62 183 -35 302 25 109 24 205 -4 277 -16 40
-28 57 -41 57 -16 0 -15 -6 12 -56z"/>
<path d="M1940 2199 c27 -68 34 -144 20 -213 -6 -32 -9 -60 -7 -63 9 -8 28
104 28 162 0 63 -25 151 -46 159 -11 4 -10 -6 5 -45z"/>
<path d="M1960 2239 c0 -5 4 -8 8 -5 5 3 9 -9 10 -27 0 -17 5 -33 10 -35 6 -2
7 -12 4 -24 -3 -15 -2 -19 7 -14 14 9 7 81 -10 102 -14 17 -29 18 -29 3z"/>
<path d="M527 2215 c-4 -8 -3 -16 1 -19 4 -3 9 4 9 15 2 23 -3 25 -10 4z"/>
<path d="M561 2186 c-8 -14 -42 -50 -78 -81 -35 -31 -61 -60 -58 -65 3 -5 -4
-14 -15 -20 -11 -6 -20 -16 -20 -22 0 -7 18 5 40 27 21 21 37 42 35 46 -3 4 5
10 18 13 12 3 36 18 52 32 17 14 24 23 16 19 -9 -5 -12 -3 -9 6 3 8 10 15 16
15 7 1 19 2 27 3 18 1 19 12 2 35 -12 16 -14 16 -26 -8z m-101 -120 c0 -2 -8
-10 -17 -17 -16 -13 -17 -12 -4 4 13 16 21 21 21 13z"/>
<path d="M454 2108 l-19 -23 23 19 c21 18 27 26 19 26 -2 0 -12 -10 -23 -22z"/>
<path d="M2031 2114 c0 -11 3 -14 6 -6 3 7 2 16 -1 19 -3 4 -6 -2 -5 -13z"/>
<path d="M2001 2104 c0 -11 3 -14 6 -6 3 7 2 16 -1 19 -3 4 -6 -2 -5 -13z"/>
<path d="M1995 2040 c-4 -23 -5 -43 -2 -46 2 -3 7 14 11 37 4 23 5 44 2 46 -2
2 -7 -14 -11 -37z"/>
<path d="M2012 2000 c0 -14 2 -19 5 -12 2 6 2 18 0 25 -3 6 -5 1 -5 -13z"/>
<path d="M375 1970 c3 -5 8 -10 11 -10 2 0 4 5 4 10 0 6 -5 10 -11 10 -5 0 -7
-4 -4 -10z"/>
<path d="M395 1949 c-24 -45 -23 -126 1 -174 11 -22 24 -39 30 -38 5 1 10 -6
10 -16 0 -10 -6 -18 -13 -18 -6 0 -11 3 -10 6 1 3 -8 16 -21 29 -12 12 -20 28
-16 34 4 7 3 8 -5 4 -12 -8 -10 -14 21 -59 11 -15 24 -25 29 -21 6 3 8 -5 5
-20 -3 -15 -1 -24 5 -21 5 4 15 3 21 -2 7 -4 22 -7 33 -8 11 0 19 -5 18 -12
-3 -11 20 -19 97 -37 14 -3 29 -5 33 -5 5 1 22 -11 37 -26 16 -15 33 -24 39
-21 6 4 11 0 11 -9 0 -9 -4 -14 -8 -11 -4 2 -9 -5 -9 -17 -2 -16 0 -18 6 -8 7
10 9 8 9 -10 0 -13 1 -69 3 -124 2 -88 3 -95 11 -55 9 52 2 233 -11 258 -4 9
-6 24 -4 32 2 8 -4 5 -16 -8 -13 -15 -22 -19 -27 -11 -4 7 1 18 11 25 15 11
16 16 5 29 -10 12 -29 14 -96 10 -47 -2 -86 0 -89 6 -4 5 -14 9 -24 9 -20 0
-48 27 -37 37 3 3 15 -2 27 -13 16 -15 40 -19 117 -22 53 -2 102 -5 109 -7 29
-10 45 -80 52 -220 l6 -140 8 191 c8 199 5 244 -19 244 -8 0 -14 5 -14 10 0
13 -25 13 -73 -1 -21 -5 -35 -14 -32 -19 4 -6 -1 -7 -11 -3 -11 4 -15 2 -11
-4 4 -7 -15 -10 -57 -9 -70 1 -102 20 -132 78 -18 35 -18 121 1 158 9 17 11
31 5 35 -5 3 -16 -8 -25 -26z m292 -225 c-3 -3 -12 -4 -19 -1 -8 3 -5 6 6 6
11 1 17 -2 13 -5z m-147 -94 c0 -5 -5 -10 -11 -10 -5 0 -7 5 -4 10 3 6 8 10
11 10 2 0 4 -4 4 -10z m135 0 c4 -6 -1 -7 -12 -3 -10 3 -15 3 -11 -1 4 -5 1
-14 -5 -21 -10 -10 -16 -10 -32 1 -11 8 -29 15 -40 15 -14 1 -11 4 10 9 44 11
83 11 90 0z"/>
<path d="M1981 1964 c0 -11 3 -14 6 -6 3 7 2 16 -1 19 -3 4 -6 -2 -5 -13z"/>
<path d="M349 1939 c-11 -22 -9 -133 4 -145 12 -13 19 4 10 23 -13 25 -4 135
9 126 7 -3 8 -1 4 5 -10 16 -14 15 -27 -9z"/>
<path d="M1971 1924 c0 -11 3 -14 6 -6 3 7 2 16 -1 19 -3 4 -6 -2 -5 -13z"/>
<path d="M1936 1873 c-8 -48 -7 -123 2 -145 4 -10 7 27 8 82 0 55 -1 100 -2
100 -1 0 -4 -17 -8 -37z"/>
<path d="M1991 1894 c0 -11 3 -14 6 -6 3 7 2 16 -1 19 -3 4 -6 -2 -5 -13z"/>
<path d="M1962 1870 c0 -14 2 -19 5 -12 2 6 2 18 0 25 -3 6 -5 1 -5 -13z"/>
<path d="M1982 1810 c0 -19 2 -27 5 -17 2 9 2 25 0 35 -3 9 -5 1 -5 -18z"/>
<path d="M1962 1810 c0 -14 2 -19 5 -12 2 6 2 18 0 25 -3 6 -5 1 -5 -13z"/>
<path d="M1992 1750 c0 -14 2 -19 5 -12 2 6 2 18 0 25 -3 6 -5 1 -5 -13z"/>
<path d="M346 1747 c3 -10 9 -15 12 -12 3 3 0 11 -7 18 -10 9 -11 8 -5 -6z"/>
<path d="M1970 1700 c0 -5 5 -10 11 -10 5 0 7 5 4 10 -3 6 -8 10 -11 10 -2 0
-4 -4 -4 -10z"/>
<path d="M1951 1690 c0 -14 28 -72 29 -59 0 4 -7 22 -15 40 -8 19 -14 27 -14
19z"/>
<path d="M476 1611 c-3 -5 1 -11 9 -14 9 -4 12 -1 8 9 -6 16 -10 17 -17 5z"/>
<path d="M1410 1601 c-127 -35 -195 -94 -216 -186 -5 -21 2 -14 23 25 50 94
161 149 315 158 101 5 139 -6 180 -52 59 -67 49 -206 -27 -359 -18 -37 -30
-69 -25 -72 4 -2 22 27 39 65 102 221 86 394 -41 431 -52 14 -177 9 -248 -10z"/>
<path d="M517 1579 c7 -7 15 -10 18 -7 3 3 -2 9 -12 12 -14 6 -15 5 -6 -5z"/>
<path d="M555 1580 c-3 -6 1 -7 9 -4 18 7 21 14 7 14 -6 0 -13 -4 -16 -10z"/>
<path d="M1433 1575 c-67 -18 -133 -52 -133 -67 0 -6 -3 -8 -7 -5 -12 12 -73
-64 -84 -106 -14 -52 -26 -132 -34 -227 -3 -41 -13 -99 -21 -128 -8 -29 -12
-57 -9 -62 3 -6 1 -10 -5 -10 -7 0 -9 -8 -5 -21 5 -14 3 -19 -4 -15 -8 5 -49
-57 -55 -83 -3 -12 -71 -71 -88 -77 -12 -4 -16 -10 -11 -15 13 -13 45 0 36 14
-3 5 -1 7 5 3 6 -3 25 7 43 23 33 30 54 31 76 2 10 -14 14 -13 37 8 14 14 26
35 26 48 0 13 5 22 11 21 20 -5 28 48 13 77 -8 15 -14 44 -15 64 -1 35 -1 36
-9 8 -5 -16 -6 -35 -3 -43 3 -8 1 -14 -5 -14 -5 0 -12 -9 -15 -20 -3 -11 -1
-20 4 -20 5 0 9 8 10 18 0 14 2 14 9 -3 l9 -20 1 20 1 20 8 -20 c5 -12 4 -23
-2 -26 -5 -4 -7 -14 -4 -23 8 -20 3 -20 -18 0 -15 15 -16 15 -10 -8 8 -31 -10
-78 -30 -78 -8 0 -15 7 -15 16 0 8 5 12 11 8 6 -3 15 0 20 7 12 19 11 42 -1
34 -7 -4 -9 3 -5 22 4 22 1 19 -14 -13 -10 -23 -25 -43 -33 -46 -16 -7 -42 18
-28 27 6 3 10 0 10 -7 0 -7 9 -2 20 12 24 30 62 128 55 140 -3 5 -1 10 4 12 5
1 12 72 15 156 7 144 25 244 46 257 13 8 13 2 -4 -42 -22 -60 -30 -100 -16
-87 7 7 13 24 13 38 1 14 5 26 8 26 8 0 22 41 19 59 -1 7 3 10 8 7 9 -5 31 14
48 44 7 12 3 12 -16 -2 -14 -9 -24 -21 -23 -26 1 -5 -4 -9 -12 -9 -23 0 0 32
42 57 30 17 41 20 55 11 22 -14 24 -3 2 13 -13 10 -12 12 7 13 12 1 25 6 28
10 7 9 29 13 136 19 92 6 139 -12 165 -62 8 -16 17 -30 20 -32 3 -1 4 -37 3
-80 -2 -70 -1 -73 8 -37 21 82 -2 170 -54 209 -36 27 -167 33 -244 11z"/>
<path d="M1468 1553 c-16 -2 -28 -9 -28 -14 0 -6 -3 -8 -7 -6 -12 7 -48 -9
-37 -16 6 -3 22 0 37 8 15 8 39 13 53 12 15 -1 29 4 31 11 5 12 1 12 -49 5z"/>
<path d="M1540 1550 c-11 -7 -4 -10 28 -10 40 0 42 -2 38 -25 -5 -25 8 -43 18
-26 4 5 2 12 -4 16 -6 4 -8 11 -4 16 4 6 14 3 25 -7 15 -13 19 -14 19 -3 0 11
2 11 11 -1 9 -13 10 -13 6 0 -2 8 -12 14 -21 14 -9 -1 -16 2 -16 6 0 8 -54 30
-74 30 -6 0 -18 -5 -26 -10z"/>
<path d="M621 1541 c-8 -5 -9 -11 -3 -15 5 -3 12 1 16 9 6 17 6 18 -13 6z"/>
<path d="M657 1513 c3 -7 6 -13 8 -13 2 0 5 6 8 13 3 8 -1 14 -8 14 -7 0 -11
-6 -8 -14z"/>
<path d="M1548 1503 c6 -2 18 -2 25 0 6 3 1 5 -13 5 -14 0 -19 -2 -12 -5z"/>
<path d="M1384 1485 c-10 -8 -14 -15 -8 -15 6 0 17 7 24 15 16 19 9 19 -16 0z"/>
<path d="M1635 1479 c-4 -6 -4 -13 -1 -16 3 -4 6 -1 6 6 0 7 5 9 12 5 7 -4 8
-3 4 4 -9 15 -13 15 -21 1z"/>
<path d="M1681 1463 c13 -34 10 -173 -4 -191 -5 -7 -7 -15 -4 -18 23 -24 45
172 24 219 -13 29 -28 20 -16 -10z"/>
<path d="M2100 1451 c0 -5 5 -13 10 -16 6 -3 10 -2 10 4 0 5 -4 13 -10 16 -5
3 -10 2 -10 -4z"/>
<path d="M1660 1419 c0 -5 5 -7 10 -4 6 3 10 8 10 11 0 2 -4 4 -10 4 -5 0 -10
-5 -10 -11z"/>
<path d="M702 1400 c0 -14 2 -19 5 -12 2 6 2 18 0 25 -3 6 -5 1 -5 -13z"/>
<path d="M1671 1374 c0 -11 3 -14 6 -6 3 7 2 16 -1 19 -3 4 -6 -2 -5 -13z"/>
<path d="M2150 1345 c1 -6 7 -21 16 -35 l15 -25 -7 25 c-7 26 -24 52 -24 35z"/>
<path d="M1172 1315 c0 -16 2 -22 5 -12 2 9 2 23 0 30 -3 6 -5 -1 -5 -18z"/>
<path d="M1241 1304 c0 -11 3 -14 6 -6 3 7 2 16 -1 19 -3 4 -6 -2 -5 -13z"/>
<path d="M1711 1303 c-1 -6 -4 -20 -7 -30 -5 -17 -5 -17 6 0 6 10 9 23 6 30
-3 9 -5 9 -5 0z"/>
<path d="M2201 1284 c0 -11 3 -14 6 -6 3 7 2 16 -1 19 -3 4 -6 -2 -5 -13z"/>
<path d="M741 1274 c0 -11 3 -14 6 -6 3 7 2 16 -1 19 -3 4 -6 -2 -5 -13z"/>
<path d="M757 1255 c-4 -22 -16 -58 -27 -80 -12 -25 -18 -30 -14 -15 4 18 -2
13 -21 -18 -27 -43 -47 -53 -25 -13 19 36 4 23 -25 -21 -23 -35 -24 -39 -7
-24 12 11 22 14 22 9 0 -13 -28 -36 -47 -39 -19 -3 -43 -24 -43 -37 0 -6 9 -1
21 12 12 12 24 19 28 16 8 -9 -100 -106 -114 -101 -5 2 -9 9 -7 15 1 7 -10 6
-30 -5 -42 -21 -42 -20 -23 -28 11 -4 14 -2 9 6 -5 8 -2 9 9 5 10 -3 17 -2 17
4 0 6 5 7 10 4 19 -12 10 -23 -27 -36 -35 -11 -36 -13 -16 -22 17 -7 28 -5 50
13 15 12 27 25 26 28 -1 4 1 9 4 12 4 3 3 -1 -2 -9 -5 -10 -4 -12 4 -7 6 4 9
12 5 17 -3 5 -1 8 5 7 5 -2 30 20 55 47 25 28 45 46 45 40 0 -14 -96 -116
-140 -148 -19 -15 -64 -34 -100 -43 -55 -14 -82 -15 -199 -6 -74 6 -151 7
-170 3 -25 -5 2 -9 100 -14 74 -4 170 -10 212 -13 91 -8 116 -3 158 32 46 39
182 210 218 274 32 57 57 139 50 162 -3 7 -8 -5 -11 -27z m-47 -123 c0 -12
-62 -94 -67 -89 -4 5 57 97 64 97 2 0 3 -4 3 -8z"/>
<path d="M2185 1199 c2 -41 4 -85 4 -99 1 -19 4 -22 10 -10 9 15 -3 167 -13
177 -3 3 -3 -28 -1 -68z"/>
<path d="M711 1244 c0 -11 3 -14 6 -6 3 7 2 16 -1 19 -3 4 -6 -2 -5 -13z"/>
<path d="M1213 1220 c0 -25 2 -35 4 -22 2 12 2 32 0 45 -2 12 -4 2 -4 -23z"/>
<path d="M731 1233 c-1 -6 -4 -20 -7 -30 -5 -17 -5 -17 6 0 6 10 9 23 6 30 -3
9 -5 9 -5 0z"/>
<path d="M1232 1210 c0 -19 2 -27 5 -17 2 9 2 25 0 35 -3 9 -5 1 -5 -18z"/>
<path d="M692 1188 c-10 -30 -10 -31 3 -14 13 17 21 46 12 46 -1 0 -8 -15 -15
-32z"/>
<path d="M1647 1206 c-3 -8 -1 -16 6 -19 7 -2 3 -15 -12 -36 -28 -39 -40 -34
-15 6 10 15 14 25 9 21 -4 -4 -14 -3 -22 3 -8 8 -13 8 -13 1 0 -6 6 -12 13
-15 8 -3 6 -11 -8 -28 -27 -31 -45 -61 -22 -36 10 11 20 17 24 13 9 -8 -38
-57 -48 -50 -5 2 -17 -4 -28 -15 -11 -11 -22 -17 -24 -14 -3 2 -4 -8 -2 -24 2
-15 -4 -36 -12 -45 -8 -9 -12 -22 -7 -29 4 -8 3 -10 -4 -5 -16 10 -65 -68 -66
-104 -1 -17 -4 -30 -7 -30 -4 0 -9 -13 -12 -29 -6 -30 -52 -82 -119 -135 -20
-17 -34 -34 -31 -39 3 -6 1 -7 -4 -4 -6 4 -14 0 -17 -9 -8 -20 -8 -25 2 -22 4
2 8 0 10 -4 5 -17 1 -20 -12 -9 -12 10 -18 -4 -36 -83 -27 -118 -73 -216 -136
-285 -46 -51 -62 -81 -44 -81 5 0 20 18 33 41 14 22 27 36 31 31 3 -6 -10 -29
-30 -53 -37 -44 -64 -90 -64 -109 0 -5 8 -10 18 -10 19 0 57 68 55 98 -1 7 2
11 5 8 9 -10 34 33 26 46 -4 7 -3 8 4 4 7 -4 20 6 32 26 29 48 24 58 -10 18
-36 -43 -40 -31 -5 14 29 39 118 274 110 294 -2 7 -1 11 4 8 5 -3 21 12 35 35
15 22 38 45 51 51 13 6 22 15 18 21 -3 6 -1 7 5 3 17 -10 87 29 110 62 18 24
43 144 46 214 0 9 3 15 7 12 4 -2 10 4 13 14 6 19 74 115 100 142 8 8 16 21
18 29 2 7 13 24 24 38 24 26 39 67 21 56 -6 -4 -8 0 -4 10 3 10 2 17 -2 17 -5
0 -11 -6 -14 -14z m-90 -165 c0 -11 -6 -19 -12 -18 -5 1 -9 -6 -7 -15 2 -12
-2 -16 -13 -12 -20 8 -19 13 7 41 26 28 27 28 25 4z"/>
<path d="M2221 1204 c0 -11 3 -14 6 -6 3 7 2 16 -1 19 -3 4 -6 -2 -5 -13z"/>
<path d="M1214 1115 c2 -27 6 -57 9 -65 3 -8 8 -31 10 -50 3 -29 4 -27 5 12 1
26 -3 50 -8 53 -6 3 -8 16 -5 28 4 13 2 34 -3 47 -8 20 -10 16 -8 -25z"/>
<path d="M600 1088 c-15 -21 -17 -28 -6 -19 16 13 41 51 33 51 -2 0 -14 -15
-27 -32z"/>
<path d="M2211 1074 c0 -11 3 -14 6 -6 3 7 2 16 -1 19 -3 4 -6 -2 -5 -13z"/>
<path d="M2195 1046 c3 -17 15 -42 26 -57 16 -23 17 -28 4 -33 -8 -3 -17 0
-21 6 -5 7 -2 8 7 3 8 -5 10 -4 6 0 -12 13 -39 15 -35 3 2 -6 19 -22 36 -36
l32 -25 -3 59 c-3 62 -12 88 -27 79 -5 -3 -14 3 -20 12 -9 15 -10 13 -5 -11z
m35 -28 c0 -16 -3 -19 -11 -11 -6 6 -8 16 -5 22 11 17 16 13 16 -11z"/>
<path d="M541 1027 c-6 -8 -8 -17 -3 -21 4 -4 -1 -12 -11 -17 -9 -6 -17 -14
-17 -20 0 -5 11 -2 25 7 18 12 22 20 15 29 -6 8 -6 15 2 23 7 7 9 12 6 12 -3
0 -11 -6 -17 -13z"/>
<path d="M1449 1023 c-13 -16 -12 -17 4 -4 16 13 21 21 13 21 -2 0 -10 -8 -17
-17z"/>
<path d="M1300 1006 c0 -2 8 -10 18 -17 15 -13 16 -12 3 4 -13 16 -21 21 -21
13z"/>
<path d="M1451 986 c-15 -16 -20 -29 -15 -38 5 -9 2 -8 -11 2 -10 8 -16 10
-12 4 7 -11 -19 -29 -36 -25 -5 1 -6 -3 -2 -8 3 -6 13 -8 23 -5 14 5 14 4 3
-4 -8 -6 -20 -8 -28 -5 -7 3 -16 -2 -19 -11 -3 -9 -11 -13 -16 -10 -6 4 -5 -3
1 -15 13 -24 -2 -66 -20 -55 -6 3 -13 -3 -16 -15 -8 -31 -31 -25 -54 14 -22
37 -33 46 -22 18 5 -12 3 -14 -7 -8 -9 5 -11 4 -6 -4 4 -6 12 -9 17 -6 10 7 7
-24 -4 -42 -5 -8 -4 -13 2 -13 6 0 11 5 11 11 0 5 5 7 10 4 8 -5 8 -11 1 -19
-6 -7 -8 -16 -4 -19 3 -4 1 -7 -5 -7 -7 0 -12 -7 -12 -15 0 -17 26 -20 35 -5
4 6 1 18 -7 27 -8 11 -9 14 -1 10 8 -5 11 -1 8 14 -2 12 -1 19 2 15 10 -10 18
-61 14 -93 -2 -18 -48 -16 -55 2 -8 23 -24 18 -39 -12 -17 -33 -28 -180 -17
-208 8 -18 9 -18 9 5 1 93 7 180 13 185 10 11 49 -5 42 -17 -4 -6 -10 -5 -15
3 -10 15 -13 3 -10 -36 2 -17 0 -17 -8 -5 -9 12 -11 11 -11 -7 0 -33 14 -28
31 9 8 18 24 37 35 43 40 20 55 37 44 50 -12 14 32 41 49 30 7 -4 18 8 27 31
12 29 13 43 5 62 -10 20 -9 23 3 19 14 -5 28 25 31 63 0 8 7 14 15 12 8 -2 12
-1 8 3 -6 6 2 18 37 59 13 15 17 36 7 36 -5 0 -19 -11 -31 -24z m9 -16 c-6
-11 -13 -20 -16 -20 -2 0 0 9 6 20 6 11 13 20 16 20 2 0 0 -9 -6 -20z m-62
-103 c-11 -21 -11 -21 -18 -2 -4 11 -3 23 3 27 19 12 28 -2 15 -25z m-33 -27
c-4 -19 -3 -30 4 -30 6 0 11 -8 11 -17 0 -13 -3 -14 -12 -5 -14 14 -19 82 -6
82 5 0 7 -13 3 -30z m-6 -64 c6 -7 8 -21 5 -30 -6 -15 -8 -15 -20 1 -13 17
-15 17 -25 1 -11 -20 -29 -24 -29 -8 0 12 37 50 49 50 5 0 14 -6 20 -14z"/>
<path d="M1418 993 c7 -3 16 -2 19 1 4 3 -2 6 -13 5 -11 0 -14 -3 -6 -6z"/>
<path d="M1350 949 c0 -5 5 -7 10 -4 6 3 10 8 10 11 0 2 -4 4 -10 4 -5 0 -10
-5 -10 -11z"/>
<path d="M1256 935 c-9 -26 -7 -32 5 -12 6 10 9 21 6 23 -2 3 -7 -2 -11 -11z"/>
<path d="M58 923 c6 -2 18 -2 25 0 6 3 1 5 -13 5 -14 0 -19 -2 -12 -5z"/>
<path d="M1320 919 c0 -5 5 -7 10 -4 6 3 10 8 10 11 0 2 -4 4 -10 4 -5 0 -10
-5 -10 -11z"/>
<path d="M173 913 c9 -2 23 -2 30 0 6 3 -1 5 -18 5 -16 0 -22 -2 -12 -5z"/>
<path d="M390 910 c0 -13 20 -13 40 0 12 8 9 10 -12 10 -16 0 -28 -4 -28 -10z"/>
<path d="M320 903 c0 -5 -72 -7 -160 -5 -88 2 -160 0 -160 -5 0 -15 309 -12
349 2 l36 14 -32 0 c-18 1 -33 -2 -33 -6z"/>
<path d="M385 883 c-11 -2 -27 -7 -35 -9 -8 -3 -60 -8 -114 -10 -55 -3 -102
-7 -105 -9 -5 -6 134 -10 212 -7 72 4 118 19 97 32 -16 10 -22 10 -55 3z"/>
<path d="M13 863 c9 -2 23 -2 30 0 6 3 -1 5 -18 5 -17 0 -22 -2 -12 -5z"/>
<path d="M1320 843 c0 -21 3 -24 9 -14 5 8 7 20 4 28 -8 21 -13 15 -13 -14z"/>
<path d="M1075 785 c-19 -16 -24 -25 -15 -25 8 0 21 9 28 20 7 11 17 20 22 20
6 0 5 -8 -2 -20 -10 -16 -10 -22 1 -32 11 -11 13 -10 8 3 -7 22 8 46 16 24 5
-10 3 -14 -5 -9 -7 5 -8 3 -3 -5 5 -9 10 -10 18 -2 7 7 5 16 -8 31 -22 25 -23
25 -60 -5z"/>
<path d="M1177 784 c-3 -3 -3 -12 0 -20 3 -8 0 -14 -6 -14 -6 0 -11 -5 -11
-11 0 -8 4 -8 14 0 8 7 14 21 13 32 -1 21 -1 21 -10 13z"/>
<path d="M890 739 c-36 -10 -54 -18 -40 -17 38 0 126 23 115 29 -5 3 -39 -2
-75 -12z"/>
<path d="M1029 745 c0 -11 -3 -15 -5 -9 -3 7 -15 9 -27 6 -20 -5 -20 -6 7 -13
33 -9 86 -1 86 13 0 5 -10 6 -21 3 -14 -5 -25 -2 -30 6 -7 11 -9 9 -10 -6z"/>
<path d="M915 715 l-40 -14 35 5 c19 2 49 5 65 5 26 0 27 1 10 9 -25 11 -23
11 -70 -5z"/>
<path d="M679 705 c-91 -13 -139 -29 -139 -48 0 -4 -4 -6 -10 -2 -17 10 -52
-76 -55 -134 -2 -60 7 -113 32 -179 24 -63 25 -45 2 28 -16 51 -19 81 -15 140
7 99 7 98 24 105 24 9 27 -3 7 -25 -30 -33 -27 -165 6 -245 7 -16 12 -33 11
-37 -1 -5 3 -8 9 -8 5 0 8 -4 5 -9 -3 -5 0 -11 8 -14 10 -4 6 13 -12 56 -36
88 -38 217 -3 265 13 18 26 31 29 28 3 -4 12 0 21 7 17 15 68 29 161 47 99 18
97 18 70 19 -20 1 -141 -20 -185 -32 -46 -13 -85 -30 -85 -38 0 -5 -4 -9 -10
-9 -24 0 -7 22 30 39 22 10 37 21 32 26 -4 5 -2 5 4 2 9 -5 171 17 199 28 20
7 -42 3 -136 -10z"/>
<path d="M1088 713 c7 -3 16 -2 19 1 4 3 -2 6 -13 5 -11 0 -14 -3 -6 -6z"/>
<path d="M1315 711 c-6 -11 9 -23 19 -14 9 9 7 23 -3 23 -6 0 -12 -4 -16 -9z"/>
<path d="M1066 691 c-4 -5 3 -7 14 -4 23 6 26 13 6 13 -8 0 -17 -4 -20 -9z"/>
<path d="M1003 683 c9 -2 23 -2 30 0 6 3 -1 5 -18 5 -16 0 -22 -2 -12 -5z"/>
<path d="M848 673 c6 -2 18 -2 25 0 6 3 1 5 -13 5 -14 0 -19 -2 -12 -5z"/>
<path d="M1105 651 c-3 -5 -2 -12 3 -15 5 -3 9 1 9 9 0 17 -3 19 -12 6z"/>
<path d="M1857 653 c-9 -2 -15 -9 -12 -14 3 -5 -2 -6 -11 -2 -14 5 -16 3 -10
-13 6 -15 5 -16 -5 -7 -9 9 -16 7 -30 -12 -34 -42 -26 -127 22 -248 24 -60 34
-75 41 -63 5 9 4 22 -2 33 -53 92 -47 235 10 250 11 3 18 8 15 12 -10 18 89
11 129 -8 73 -36 81 -61 78 -245 -3 -152 -2 -159 19 -177 25 -21 54 -26 43 -6
-6 9 -4 9 7 0 7 -7 32 -13 56 -13 62 0 57 25 -7 40 -72 17 -81 43 -79 222 1
136 1 139 -26 178 -25 37 -36 45 -57 41 -5 0 -8 3 -8 8 0 23 -115 39 -173 24z
m-36 -60 c13 -16 12 -17 -3 -4 -17 13 -22 21 -14 21 2 0 10 -8 17 -17z"/>
<path d="M605 621 c-3 -5 -2 -12 3 -15 5 -3 9 1 9 9 0 17 -3 19 -12 6z"/>
<path d="M556 575 c-9 -26 -7 -32 5 -12 6 10 9 21 6 23 -2 3 -7 -2 -11 -11z"/>
<path d="M1900 579 c-33 -14 -61 -40 -54 -51 3 -5 12 0 20 11 14 20 44 19 44
-1 0 -6 -6 -8 -14 -5 -14 6 -41 -39 -28 -47 9 -5 34 8 33 18 -2 17 0 20 8 7 6
-9 11 -10 15 -2 4 6 2 11 -4 11 -6 0 -8 5 -5 10 4 6 10 8 15 5 5 -3 11 -1 15
4 3 6 12 8 20 5 7 -3 23 -1 34 6 24 12 29 -3 10 -30 -9 -12 -10 -12 -5 4 5 16
4 17 -8 7 -9 -8 -24 -10 -38 -5 -21 6 -22 5 -9 -10 8 -10 23 -15 33 -12 12 3
18 0 15 -7 -2 -7 4 -28 14 -48 10 -20 15 -45 12 -57 -3 -11 2 -31 11 -44 9
-12 16 -32 15 -43 0 -13 -4 -8 -10 13 -6 19 -14 30 -20 26 -8 -4 -7 -9 1 -14
12 -7 11 -25 -6 -122 -5 -29 -2 -40 15 -57 11 -11 26 -18 34 -16 8 4 13 -2 13
-15 0 -11 -3 -20 -6 -20 -3 0 -4 -21 -3 -47 2 -36 1 -43 -6 -28 -9 19 -10 19
-10 -3 -1 -34 20 -22 36 19 l13 34 -5 -37 c-5 -32 -3 -38 12 -38 10 0 23 11
30 25 6 14 7 25 3 25 -5 0 -10 -6 -13 -12 -2 -7 -7 -10 -10 -7 -4 3 1 16 10
28 12 18 17 20 24 10 4 -7 11 -10 15 -6 4 3 1 13 -6 22 -11 13 -10 14 4 9 9
-3 16 -10 16 -14 0 -5 16 -3 35 3 23 7 35 16 35 29 0 16 -9 18 -68 18 -46 0
-75 5 -90 16 -13 9 -29 13 -37 11 -9 -4 -15 6 -20 34 -4 22 -4 43 -1 46 3 4 6
-2 6 -13 0 -10 6 -26 13 -35 10 -13 12 -1 15 65 1 49 -2 82 -9 87 -6 3 -12 23
-14 44 -2 21 -9 43 -14 48 -6 6 -11 19 -11 29 0 10 -4 18 -10 18 -5 0 -7 7 -4
15 4 8 9 13 13 11 4 -3 12 4 19 14 10 16 7 22 -15 39 -14 12 -33 21 -42 21 -9
0 -25 2 -36 5 -11 2 -31 0 -45 -6z m36 -21 c-9 -5 -23 -5 -32 0 -12 6 -7 9 16
9 23 0 28 -3 16 -9z m249 -439 l60 -2 -65 -8 c-69 -8 -100 -4 -100 13 0 6 10
8 23 4 12 -3 49 -6 82 -7z"/>
<path d="M531 514 c0 -11 3 -14 6 -6 3 7 2 16 -1 19 -3 4 -6 -2 -5 -13z"/>
<path d="M1829 513 c0 -4 -3 -21 -5 -38 -4 -23 -2 -27 6 -15 9 11 10 7 5 -17
-4 -18 -2 -40 4 -50 8 -13 10 -14 11 -4 0 12 3 12 12 3 10 -10 10 -15 -2 -22
-8 -5 -11 -13 -6 -17 5 -4 11 -2 13 5 3 6 10 9 16 5 7 -4 8 0 3 13 -5 10 -9
24 -9 31 0 6 -9 10 -20 8 -14 -3 -17 0 -12 13 4 9 7 26 7 37 -1 18 0 19 9 2 6
-9 7 -23 4 -30 -4 -6 1 -3 9 7 9 11 16 25 16 30 0 6 -4 5 -9 -2 -7 -11 -9 -11
-14 2 -4 9 -10 16 -14 15 -19 -3 -27 2 -14 10 9 6 10 11 2 15 -6 4 -11 4 -12
-1z"/>
<path d="M2037 502 c-15 -17 -15 -20 -1 -41 9 -12 16 -38 16 -57 0 -18 4 -32
8 -29 4 3 8 23 8 45 1 22 -3 38 -7 35 -5 -2 -11 4 -14 15 -3 11 0 23 5 27 6 3
8 1 4 -5 -3 -6 -2 -13 4 -17 12 -7 13 15 2 33 -7 10 -12 8 -25 -6z"/>
<path d="M1742 487 c-14 -16 -8 -32 68 -197 52 -110 80 -202 80 -257 0 -30 3
-33 30 -33 22 0 30 5 30 18 0 35 -21 89 -62 162 -59 103 -105 205 -121 268
-11 44 -16 51 -25 39z"/>
<path d="M531 474 c0 -11 3 -14 6 -6 3 7 2 16 -1 19 -3 4 -6 -2 -5 -13z"/>
<path d="M1154 443 c2 -13 0 -26 -5 -29 -5 -3 -6 -10 -3 -16 12 -20 25 19 14
44 -10 23 -10 23 -6 1z"/>
<path d="M1120 434 c0 -8 5 -12 10 -9 6 3 10 10 10 16 0 5 -4 9 -10 9 -5 0
-10 -7 -10 -16z"/>
<path d="M1896 413 c-6 -14 -5 -15 5 -6 7 7 10 15 7 18 -3 3 -9 -2 -12 -12z"/>
<path d="M1105 369 c-4 -6 -5 -12 -2 -15 2 -3 7 2 10 11 7 17 1 20 -8 4z"/>
<path d="M1123 350 c-8 -22 -8 -32 0 -37 7 -3 9 -3 5 2 -4 4 -1 17 7 29 17 23
19 36 7 36 -4 0 -13 -13 -19 -30z"/>
<path d="M1877 337 c-16 -11 -16 -14 2 -40 l18 -29 12 34 c9 28 9 30 -3 16 -7
-10 -16 -15 -19 -11 -4 3 -2 12 5 20 15 19 5 26 -15 10z"/>
<path d="M1081 317 c-13 -21 -12 -21 5 -5 10 10 16 20 13 22 -3 3 -11 -5 -18
-17z"/>
<path d="M1091 292 c-6 -11 -8 -22 -5 -25 3 -3 3 -11 -1 -17 -6 -9 -10 -9 -17
1 -8 11 -9 11 -5 -1 2 -8 -5 -19 -16 -25 -11 -5 -23 -17 -25 -25 -4 -12 -3
-13 10 -3 8 7 17 10 20 7 3 -3 15 7 25 23 33 47 44 71 34 78 -6 3 -15 -3 -20
-13z"/>
<path d="M1925 302 c6 -5 26 -15 45 -21 30 -10 33 -10 20 2 -8 8 -28 18 -45
21 -19 5 -26 4 -20 -2z"/>
<path d="M2011 278 l-1 -27 -46 20 c-46 21 -62 20 -49 -1 4 -6 16 -8 28 -5 21
6 21 6 3 -9 -10 -9 -24 -13 -30 -9 -6 3 -8 2 -3 -2 9 -10 48 -15 42 -5 -2 4 4
6 13 5 29 -2 29 -20 0 -20 -15 -1 -31 -5 -35 -9 -4 -5 -3 -6 4 -2 6 3 14 2 18
-4 4 -6 11 -7 17 -4 7 4 8 2 4 -4 -4 -7 -2 -12 4 -12 6 0 8 -4 5 -10 -3 -5 -1
-10 5 -10 6 0 10 10 9 23 -2 12 3 32 10 45 7 13 10 33 8 45 -4 19 -4 18 -6 -5z"/>
<path d="M530 283 c0 -6 14 -42 31 -80 17 -37 41 -97 54 -133 13 -41 28 -66
38 -68 10 -2 17 1 17 7 0 6 -5 11 -11 11 -5 0 -8 4 -4 9 6 11 -15 61 -27 61
-4 0 -7 3 -6 8 1 4 -19 50 -45 102 -25 52 -47 90 -47 83z"/>
<path d="M1857 284 c-11 -12 -8 -26 5 -18 6 4 8 3 5 -3 -4 -6 11 -42 33 -79
22 -38 40 -74 40 -81 0 -7 7 -10 18 -7 11 4 13 3 5 -3 -7 -5 -10 -24 -6 -51 5
-41 7 -42 43 -42 37 0 37 0 43 47 5 49 -7 88 -24 78 -5 -4 -9 0 -9 8 0 7 -12
19 -26 25 -14 7 -23 16 -19 21 3 5 0 13 -7 18 -13 7 -18 9 -37 12 -5 0 -12 9
-15 19 -10 27 -41 64 -49 56z m97 -93 c3 -5 -2 -15 -12 -22 -15 -12 -16 -12
-5 2 7 9 10 19 6 22 -3 4 -4 7 0 7 3 0 8 -4 11 -9z m-1 -46 c-3 -9 -8 -14 -10
-11 -3 3 -2 9 2 15 9 16 15 13 8 -4z"/>
<path d="M583 261 c-9 -14 -9 -23 1 -37 7 -11 16 -31 20 -47 3 -15 16 -37 28
-49 13 -13 24 -31 26 -42 1 -11 15 -33 30 -49 22 -24 24 -27 7 -22 -16 6 -17
5 -5 -4 8 -6 55 -11 103 -11 84 0 88 1 82 20 -4 11 -2 20 4 20 6 0 11 -9 11
-20 0 -11 5 -20 11 -20 6 0 8 9 4 23 -4 15 -3 18 3 9 7 -11 10 -10 16 3 3 9 6
26 6 37 0 26 -24 18 -28 -10 -2 -12 -8 -20 -13 -16 -6 3 -17 0 -25 -7 -9 -7
-11 -15 -5 -18 6 -4 -11 -8 -37 -9 -57 -3 -116 21 -130 53 -6 12 -25 39 -42
58 -17 20 -30 37 -29 39 1 2 -6 21 -15 42 -9 22 -14 47 -10 58 7 23 2 23 -13
-1z m334 -213 c-3 -7 -5 -2 -5 12 0 14 2 19 5 13 2 -7 2 -19 0 -25z"/>
<path d="M1029 243 c-13 -16 -12 -17 4 -4 16 13 21 21 13 21 -2 0 -10 -8 -17
-17z"/>
<path d="M985 209 c-4 -6 -5 -12 -2 -15 2 -3 7 2 10 11 7 17 1 20 -8 4z"/>
<path d="M996 181 c-4 -6 -4 -16 0 -23 5 -8 2 -9 -10 -5 -9 4 -15 3 -12 -2 7
-10 -22 -24 -33 -16 -10 6 -5 -44 5 -53 4 -4 4 1 1 11 -9 23 6 22 28 -3 16
-17 16 -20 3 -15 -12 5 -22 -4 -38 -34 -20 -40 -20 -41 -1 -41 24 0 38 19 21
30 -9 5 -9 9 -1 14 6 4 11 4 11 -1 0 -4 7 2 15 14 9 13 13 34 11 50 -4 17 1
34 11 45 12 13 13 22 6 29 -8 8 -13 8 -17 0z m-6 -66 c0 -12 -19 -12 -23 0 -4
9 -1 12 9 8 7 -3 14 -7 14 -8z"/>
<path d="M640 170 c0 -5 5 -10 11 -10 5 0 7 5 4 10 -3 6 -8 10 -11 10 -2 0 -4
-4 -4 -10z"/>
<path d="M896 163 c-6 -14 -5 -15 5 -6 7 7 10 15 7 18 -3 3 -9 -2 -12 -12z"/>
<path d="M35 136 c6 -2 28 -8 50 -11 34 -6 37 -9 20 -16 -16 -7 -14 -8 9 -4
36 7 121 -32 156 -72 14 -16 18 -22 10 -15 -18 16 -38 16 -22 0 7 -7 29 -13
50 -15 l37 -2 -40 34 c-49 42 -168 94 -232 100 -26 3 -43 3 -38 1z"/>
<path d="M880 121 c0 -5 7 -12 16 -15 14 -5 15 -4 4 9 -14 17 -20 19 -20 6z"/>
<path d="M48 113 c6 -2 18 -2 25 0 6 3 1 5 -13 5 -14 0 -19 -2 -12 -5z"/>
<path d="M685 110 c-4 -6 -1 -9 7 -8 7 2 12 -3 10 -10 -1 -8 2 -11 8 -7 8 5 7
11 -1 21 -14 17 -16 17 -24 4z"/>
<path d="M48 93 c6 -2 18 -2 25 0 6 3 1 5 -13 5 -14 0 -19 -2 -12 -5z"/>
<path d="M150 84 c23 -14 24 -15 3 -10 -13 3 -33 8 -45 11 -21 5 -21 5 -3 -3
16 -7 17 -10 5 -14 -8 -3 -7 -4 4 -2 27 4 68 -14 60 -27 -4 -8 -9 -7 -15 2 -5
8 -9 9 -9 3 0 -18 13 -24 27 -13 9 9 17 8 27 0 7 -6 21 -8 30 -5 23 9 6 27
-49 53 -52 24 -71 27 -35 5z m61 -35 c19 -16 20 -18 4 -10 -34 17 -51 31 -39
31 7 0 22 -9 35 -21z"/>
<path d="M0 79 c0 -5 19 -9 42 -9 49 0 47 5 -4 13 -21 3 -38 2 -38 -4z"/>
<path d="M779 69 c27 -17 32 -23 20 -31 -12 -8 -12 -9 0 -6 8 2 15 12 17 22 1
10 0 15 -3 12 -3 -3 -15 1 -27 9 -11 8 -25 15 -31 15 -5 0 5 -9 24 -21z"/>
<path d="M834 65 c1 -8 6 -18 11 -22 4 -4 5 -3 2 4 -4 6 -2 13 5 15 8 3 6 6
-4 10 -10 4 -15 2 -14 -7z"/>
<path d="M28 53 c7 -3 16 -2 19 1 4 3 -2 6 -13 5 -11 0 -14 -3 -6 -6z"/>
<path d="M2185 40 c3 -6 0 -10 -7 -10 -8 0 -6 -5 5 -11 10 -6 21 -8 24 -5 4 3
0 6 -8 6 -11 0 -12 2 -1 9 11 7 10 9 -3 14 -9 4 -13 3 -10 -3z"/>
<path d="M188 8 c5 -5 16 -8 23 -6 8 3 3 7 -10 11 -17 4 -21 3 -13 -5z"/>
<path d="M230 10 c0 -5 5 -10 11 -10 5 0 7 5 4 10 -3 6 -8 10 -11 10 -2 0 -4
-4 -4 -10z"/>
</g>
</svg>
